<?xml version="1.0" standalone="no"?>
<!DOCTYPE svg PUBLIC "-//W3C//DTD SVG 20010904//EN"
 "http://www.w3.org/TR/2001/REC-SVG-20010904/DTD/svg10.dtd">
<svg version="1.0" xmlns="http://www.w3.org/2000/svg"
 width="900.000000pt" height="1079.000000pt" viewBox="0 0 900.000000 1079.000000"
 preserveAspectRatio="xMidYMid meet">

<g transform="translate(0.000000,1079.000000) scale(0.100000,-0.100000)"
fill="#000000" stroke="none">
<path d="M635 10758 c-3 -18 -4 -1241 -2 -2718 2 -2034 6 -2704 15 -2765 7
-44 17 -114 23 -155 37 -267 139 -636 233 -845 8 -16 24 -55 37 -85 39 -93
131 -269 207 -395 34 -57 209 -314 221 -325 3 -3 44 -52 91 -110 155 -193 378
-409 610 -590 106 -83 323 -230 339 -230 6 0 11 -4 11 -10 0 -5 4 -10 9 -10 5
0 45 -21 88 -47 387 -230 954 -421 1428 -483 316 -41 570 -48 853 -25 723 59
1349 272 1924 656 347 232 580 449 897 834 67 82 221 315 300 455 32 58 151
297 151 305 0 3 9 24 20 48 135 293 243 751 270 1139 11 155 14 5345 4 5372
-6 15 -355 16 -3865 16 l-3858 0 -6 -32z m4632 -250 c53 -16 80 -76 53 -118
-7 -12 -15 -11 -53 8 -83 41 -169 20 -169 -42 0 -32 13 -44 112 -96 92 -48
102 -56 129 -100 41 -67 17 -183 -47 -229 -76 -54 -174 -65 -267 -30 -71 26
-93 67 -65 119 10 18 12 18 63 -5 76 -34 116 -39 156 -18 44 23 59 64 37 97
-8 13 -53 42 -99 64 -90 43 -130 81 -148 141 -45 152 116 265 298 209z m-4236
2 c18 -10 19 -23 19 -218 0 -177 3 -212 18 -242 20 -42 53 -60 107 -60 54 0
87 18 107 60 15 30 18 65 18 242 0 195 1 208 19 218 11 5 32 10 46 10 14 0 35
-5 46 -10 18 -10 19 -23 19 -224 0 -133 -4 -226 -11 -247 -18 -52 -55 -96
-107 -126 -42 -25 -57 -28 -137 -28 -77 0 -98 4 -140 26 -54 27 -89 70 -105
128 -5 20 -10 131 -10 248 0 191 2 213 18 222 22 13 68 14 93 1z m1191 -12 c4
-7 7 -143 6 -301 -3 -324 2 -307 -84 -307 -36 0 -56 5 -71 20 -20 18 -92 146
-186 333 -25 49 -48 87 -52 85 -4 -2 -8 -100 -8 -218 l-2 -215 -46 -3 c-31 -2
-50 2 -58 12 -9 10 -11 88 -9 300 3 242 5 288 18 296 22 14 132 11 152 -4 18
-14 165 -278 196 -353 9 -24 22 -43 27 -43 6 0 9 70 7 197 -3 181 -2 198 15
211 21 16 82 9 95 -10z m404 5 c18 -17 19 -35 14 -313 l-5 -295 -48 -3 c-27
-2 -55 2 -63 9 -11 9 -14 62 -14 298 0 157 4 291 8 297 18 27 82 31 108 7z
m367 5 c9 -8 46 -108 87 -237 68 -218 76 -239 84 -230 3 3 87 270 132 421 13
42 18 48 49 54 46 8 85 -2 85 -23 0 -23 -179 -553 -196 -580 -13 -20 -23 -23
-83 -23 -74 0 -80 3 -98 60 -7 19 -51 150 -98 290 -80 236 -85 255 -69 267 23
17 85 17 107 1z m1024 -2 c17 -7 17 -70 0 -84 -7 -6 -60 -13 -118 -14 l-104
-3 -3 -64 c-2 -37 1 -67 7 -71 6 -3 47 -5 90 -3 87 3 111 -8 111 -52 0 -44
-25 -57 -109 -55 -42 1 -82 2 -89 1 -10 -1 -12 -22 -10 -83 l3 -83 109 -1 c93
-1 111 -4 122 -19 12 -16 10 -54 -3 -77 -2 -5 -79 -8 -170 -8 -146 0 -167 2
-179 18 -10 13 -13 79 -14 293 0 279 3 300 37 310 19 6 304 1 320 -5z m1697 4
l26 -10 0 -293 c0 -215 -3 -296 -12 -305 -14 -14 -104 -16 -113 -3 -3 5 -6
141 -6 303 0 267 1 293 17 305 21 15 53 17 88 3z m666 -24 c65 -34 100 -67
127 -119 25 -48 28 -61 27 -162 0 -124 -11 -160 -69 -224 -58 -64 -118 -84
-276 -89 -118 -4 -137 -2 -152 12 -15 16 -17 47 -17 295 0 280 3 302 37 312 7
2 75 2 150 -1 106 -5 146 -10 173 -24z m693 22 c14 -11 73 -166 147 -388 10
-30 30 -88 45 -129 14 -40 24 -80 21 -87 -7 -18 -109 -19 -124 -1 -6 6 -19 37
-29 67 l-19 55 -116 3 -116 3 -18 -58 c-23 -77 -29 -83 -83 -83 -61 0 -72 11
-55 58 7 20 40 116 74 212 34 96 73 209 86 250 14 41 34 83 46 93 24 20 115
24 141 5z m828 -34 c71 -40 112 -101 129 -189 32 -170 -37 -323 -166 -370 -68
-25 -314 -34 -332 -12 -9 11 -12 86 -10 303 3 280 4 289 24 299 12 6 73 8 160
4 133 -5 144 -7 195 -35z m-3298 25 c88 -24 140 -113 117 -199 -12 -44 -51
-96 -80 -105 -27 -8 -25 -21 5 -48 29 -26 119 -223 111 -244 -4 -10 -22 -13
-68 -11 l-63 3 -40 97 c-22 53 -49 106 -60 118 -27 30 -62 42 -85 30 -17 -9
-20 -24 -22 -128 l-3 -117 -48 -3 c-27 -2 -55 2 -63 9 -11 9 -14 61 -14 291 0
173 4 287 10 299 10 17 22 19 138 19 70 0 144 -5 165 -11z m-241 -2396 c2
-887 -1 -1583 -6 -1590 -7 -10 -279 -13 -1307 -13 -774 0 -1300 4 -1303 9 -4
6 -10 2951 -6 3164 0 4 589 7 1310 7 l1310 0 2 -1577z m2899 -6 c0 -867 -3
-1582 -6 -1587 -10 -16 -2600 -13 -2611 3 -5 7 -8 703 -6 1590 l2 1577 1310
-2 1310 -3 1 -1578z m887 1260 c15 -18 9 -84 -9 -102 -8 -7 -36 -22 -64 -32
l-50 -19 0 -104 0 -105 55 -18 c61 -20 80 -38 80 -77 0 -14 -6 -34 -12 -43
-12 -15 -16 -15 -58 -1 -25 9 -140 49 -257 90 -117 40 -221 78 -233 84 -17 9
-20 20 -20 74 0 39 5 67 13 74 6 5 113 45 237 88 124 42 239 83 255 90 39 17
50 17 63 1z m-6750 -9 c15 -15 16 -198 2 -250 -31 -110 -150 -159 -258 -107
-64 31 -94 83 -101 172 l-6 72 -90 3 c-49 2 -94 7 -99 12 -10 10 -11 85 -1
100 9 15 538 13 553 -2z m-111 -831 c87 -45 133 -129 133 -242 0 -118 -55
-206 -150 -241 -68 -25 -222 -24 -280 3 -103 46 -150 114 -158 229 -6 100 17
173 71 219 61 53 106 65 227 62 91 -3 112 -7 157 -30z m6422 -66 c13 -8 11
-18 -12 -63 -15 -29 -27 -63 -27 -76 0 -38 26 -88 56 -109 32 -22 106 -43 153
-43 50 0 137 38 157 68 25 37 25 127 0 168 -24 40 -16 64 22 64 90 0 134 -158
78 -283 -26 -60 -66 -95 -138 -122 -66 -25 -226 -18 -284 12 -83 44 -132 115
-141 207 -7 64 18 149 50 171 24 17 65 19 86 6z m292 -872 c97 -21 159 -110
159 -229 0 -109 -46 -186 -127 -214 -59 -20 -437 -24 -449 -4 -8 13 -7 88 2
97 3 3 97 8 210 11 203 5 204 5 229 31 51 50 48 127 -5 174 -20 18 -40 20
-229 25 l-206 5 -3 43 c-5 71 -2 72 194 72 95 0 196 -5 225 -11z m-6593 -41
c13 -24 8 -64 -10 -86 -9 -10 -60 -13 -222 -12 -116 1 -216 1 -223 1 -8 -1
-13 -30 -15 -93 l-3 -93 -45 0 -45 0 -3 146 c-2 139 -2 146 18 155 11 5 136 8
278 7 l257 -1 13 -24z m2 -738 c3 -14 3 -38 0 -55 l-6 -30 -274 -3 c-150 -1
-278 2 -282 6 -15 15 -12 93 3 103 8 5 135 8 284 6 l269 -2 6 -25z m6744 -193
c8 -21 7 -35 -5 -55 -15 -27 -16 -27 -124 -28 l-110 0 -3 -102 -3 -102 110 0
c127 0 145 -9 138 -67 -3 -19 -9 -39 -14 -44 -5 -5 -128 -8 -284 -7 l-274 3
-3 43 c-5 67 6 73 115 71 52 -1 96 1 100 4 8 8 6 187 -2 195 -3 3 -46 5 -96 3
-59 -2 -95 1 -104 9 -15 13 -21 91 -8 103 4 4 131 6 282 5 l276 -3 9 -28z
m-6756 -325 c9 -7 12 -57 10 -218 l-3 -209 -33 -3 c-51 -5 -62 11 -62 89 l0
69 -232 2 -233 3 -6 36 c-3 20 -2 46 2 58 8 21 13 21 239 21 177 0 230 3 231
13 0 6 0 37 -1 69 -1 45 2 58 17 67 22 12 53 14 71 3z m2962 -62 c0 -5 0 -714
0 -1575 0 -861 0 -1569 0 -1575 0 -26 -293 9 -505 60 -122 30 -340 101 -430
141 -129 57 -221 101 -287 140 -642 372 -1094 945 -1297 1644 -75 259 -100
464 -101 850 -1 165 -1 306 -1 313 1 16 2621 18 2621 2z m2901 -305 c-1 -170
-6 -348 -11 -395 -31 -271 -100 -535 -206 -790 -52 -124 -58 -136 -70 -132 -4
1 -7 186 -5 411 1 225 0 419 -4 430 l-6 21 -1020 0 -1019 0 0 -715 0 -715 55
0 c37 0 55 4 55 13 0 6 0 226 0 487 0 523 1 537 60 617 86 117 274 129 364 22
64 -76 61 -38 66 -684 l5 -590 90 0 90 0 5 250 c4 217 7 255 24 287 43 88 158
149 244 129 68 -15 129 -57 159 -109 l28 -47 5 -255 5 -255 90 0 90 0 5 585
c5 576 5 586 27 625 84 156 281 185 392 58 69 -77 71 -94 71 -473 l0 -337 -62
-89 c-328 -475 -785 -835 -1308 -1031 -240 -90 -520 -153 -745 -169 -84 -6
-95 -5 -95 10 0 9 0 718 0 1576 0 858 0 1565 0 1570 0 7 439 9 1311 8 l1312
-3 -2 -310z m501 -163 c5 -5 -5 -25 -26 -51 -65 -78 -67 -140 -5 -202 65 -65
208 -91 276 -49 58 35 82 120 53 191 -18 43 -2 56 47 38 46 -18 63 -48 63
-114 -1 -100 -49 -192 -125 -237 -34 -20 -53 -23 -130 -22 -144 1 -255 58
-307 158 -44 82 -22 224 43 285 19 18 32 22 63 18 21 -3 43 -10 48 -15z
m-6353 -306 c6 -7 15 -47 21 -88 5 -41 14 -105 20 -142 13 -80 5 -96 -46 -96
-38 0 -36 -3 -54 119 -6 41 -13 78 -16 82 -6 10 -91 0 -117 -13 -12 -6 -16
-15 -12 -26 4 -9 11 -43 16 -76 11 -68 2 -86 -42 -86 -35 0 -45 19 -54 100 -9
82 -9 83 -93 68 -40 -7 -72 -17 -72 -23 0 -5 7 -50 16 -100 15 -84 14 -90 -2
-102 -23 -17 -60 -17 -71 0 -4 6 -17 75 -29 151 -19 129 -20 140 -4 156 11 11
58 22 146 35 71 10 179 26 239 35 142 22 141 22 154 6z m139 -133 c53 -37 82
-79 82 -122 0 -37 -27 -28 -88 28 -58 53 -82 96 -67 120 9 16 13 14 73 -26z
m4503 -89 c58 -18 121 -72 157 -132 27 -47 27 -48 27 -232 l0 -185 -85 -3
c-125 -4 -130 -2 -130 59 0 44 -4 55 -31 80 -38 35 -55 36 -94 4 -25 -20 -29
-32 -31 -76 -1 -31 -7 -55 -15 -60 -22 -14 -185 -11 -197 4 -6 7 -9 79 -8 182
3 189 9 215 72 284 79 88 205 116 335 75z m1801 -430 c124 -4 168 -9 172 -19
2 -7 -5 -33 -17 -57 l-22 -43 -63 -1 c-34 0 -66 -4 -71 -10 -10 -12 -71 -165
-71 -180 0 -7 20 -27 45 -45 54 -41 56 -45 41 -88 -19 -59 -36 -60 -102 -5
-177 147 -374 316 -380 325 -8 13 23 97 45 122 14 17 27 18 136 13 66 -3 195
-9 287 -12z m-6306 -128 c85 -40 143 -131 144 -228 0 -53 -20 -83 -66 -94 -27
-7 -49 10 -37 29 3 5 5 30 5 55 -2 60 -38 116 -87 132 -96 32 -255 -44 -286
-137 -15 -47 9 -110 62 -158 45 -40 43 -53 -12 -75 -27 -12 -33 -10 -66 17
-46 36 -95 132 -101 195 -11 113 67 210 212 264 83 31 165 31 232 0z m5710
-491 c121 -50 166 -162 110 -273 -14 -27 -32 -54 -40 -61 -9 -8 -16 -17 -16
-22 0 -5 34 -34 75 -65 51 -38 74 -62 70 -72 -9 -25 -50 -71 -62 -71 -12 -1
-72 42 -341 242 -51 38 -96 75 -99 83 -12 33 124 201 189 233 51 25 67 26 114
6z m-5294 -162 c66 -72 66 -68 8 -210 -29 -71 -66 -156 -83 -191 -16 -35 -27
-65 -24 -68 3 -4 68 46 144 110 75 64 143 116 150 116 6 0 24 -16 39 -36 23
-30 25 -37 13 -48 -75 -71 -405 -336 -418 -336 -19 0 -62 42 -81 78 -10 21 -3
45 61 200 40 97 81 192 91 210 10 17 13 32 8 32 -6 0 -46 -30 -89 -67 -129
-112 -218 -183 -228 -183 -6 0 -23 16 -38 36 -33 43 -55 18 198 228 104 86
196 156 206 156 9 0 29 -12 43 -27z m640 -629 c21 -15 38 -32 38 -39 0 -10
-54 -85 -267 -372 -29 -40 -60 -73 -69 -73 -23 0 -86 51 -80 66 3 7 51 75 107
151 56 76 120 163 142 193 47 64 78 100 86 100 3 0 22 -12 43 -26z m3658 -114
c20 -29 20 -29 1 -47 -11 -10 -50 -34 -86 -53 -37 -19 -69 -40 -71 -46 -5 -11
41 -100 57 -110 5 -3 39 13 74 35 74 47 88 49 109 19 24 -34 19 -53 -16 -71
-53 -27 -100 -55 -110 -65 -11 -11 61 -132 77 -132 5 0 46 23 90 50 l80 49 23
-21 c45 -43 33 -58 -110 -140 -93 -54 -137 -74 -148 -68 -8 4 -51 70 -95 145
-82 141 -87 150 -143 246 -17 31 -32 64 -32 73 0 13 96 86 114 86 2 0 37 20
77 45 39 24 76 42 80 39 4 -2 17 -18 29 -34z m-3063 -225 c56 -17 124 -62 149
-100 16 -24 16 -28 -1 -65 -10 -22 -23 -40 -28 -40 -6 0 -26 19 -45 41 -37 43
-84 69 -125 69 -13 0 -42 -12 -66 -27 -80 -53 -136 -211 -98 -280 29 -51 108
-86 172 -76 53 9 58 -33 9 -81 -37 -37 -175 -2 -247 63 -72 65 -92 141 -63
246 39 146 154 261 267 264 14 1 48 -6 76 -14z m2273 -137 c119 -27 200 -151
200 -306 0 -104 -40 -171 -130 -217 -51 -26 -206 -75 -237 -75 -25 0 -29 9
-88 215 -25 88 -55 191 -66 228 -11 37 -18 74 -15 82 7 18 198 77 273 84 6 1
35 -4 63 -11z m-1491 -89 c57 -12 58 -14 81 -149 6 -36 17 -96 25 -135 44
-222 56 -296 50 -305 -9 -14 -65 -12 -95 3 -19 9 -27 25 -36 70 -6 32 -13 59
-15 62 -2 2 -46 11 -98 20 -105 18 -101 19 -141 -52 -25 -47 -27 -48 -69 -46
-80 4 -80 1 55 253 25 47 68 128 96 180 27 52 55 98 62 102 15 10 26 10 85 -3z"/>
<path d="M6158 10404 c-5 -4 -8 -96 -8 -205 0 -226 -5 -216 94 -204 110 14
160 80 161 210 0 130 -55 194 -173 202 -37 3 -70 2 -74 -3z"/>
<path d="M6990 10369 c0 -2 -17 -55 -39 -116 -21 -62 -36 -115 -33 -118 8 -8
150 -6 156 3 5 8 -65 216 -77 228 -4 4 -7 5 -7 3z"/>
<path d="M7657 10403 c-4 -3 -7 -95 -7 -204 0 -225 -4 -217 87 -203 64 9 96
27 129 70 25 32 28 47 32 123 4 111 -19 164 -88 199 -43 21 -138 31 -153 15z"/>
<path d="M4441 10408 c-20 -7 -22 -13 -19 -85 l3 -78 59 0 c51 1 61 4 82 28
29 33 31 76 6 107 -21 25 -96 42 -131 28z"/>
<path d="M3080 9373 c0 -5 -14 -23 -31 -40 -21 -23 -39 -33 -60 -33 -19 0 -39
-9 -55 -25 -14 -14 -29 -25 -33 -25 -5 0 -23 -15 -40 -32 l-32 -32 -23 28 -23
29 -32 -24 c-41 -30 -59 -20 -80 47 -12 37 -21 49 -36 49 -16 0 -23 -11 -32
-47 -15 -61 -20 -68 -47 -68 -28 0 -42 -15 -72 -80 -23 -50 -46 -63 -61 -36
-16 29 -37 22 -43 -14 -3 -23 -13 -38 -29 -46 -33 -17 -40 -32 -34 -72 l6 -34
-52 7 c-40 5 -57 3 -76 -9 -35 -23 -31 -40 20 -83 56 -47 58 -63 5 -63 -48 0
-50 -11 -9 -57 27 -32 29 -37 16 -51 -12 -11 -22 -12 -44 -5 -61 21 -73 -20
-18 -63 41 -31 44 -59 10 -86 -36 -28 -34 -70 5 -98 17 -12 30 -27 30 -34 0
-7 -16 -33 -36 -59 -42 -54 -40 -80 9 -93 29 -9 32 -13 33 -53 3 -71 19 -74
73 -13 78 86 124 64 71 -36 -26 -50 -28 -58 -15 -72 8 -9 15 -23 15 -32 0 -20
38 -68 54 -68 7 0 23 11 36 25 18 19 33 25 55 23 26 -3 30 -7 33 -35 3 -27 8
-33 27 -33 13 0 27 -4 30 -10 15 -25 47 -9 65 34 21 45 46 73 57 62 6 -5 10
-26 12 -63 1 -18 32 -16 70 3 30 15 34 15 49 0 15 -14 17 -42 17 -182 0 -91
-3 -168 -8 -171 -4 -2 -32 5 -61 16 -92 34 -213 47 -303 32 -86 -14 -109 -28
-118 -72 -4 -17 -17 -40 -30 -52 -16 -15 -39 -73 -75 -192 -28 -93 -67 -218
-86 -276 -19 -58 -32 -113 -29 -121 5 -12 37 -16 158 -22 174 -8 321 -26 457
-56 75 -16 100 -26 119 -47 20 -24 31 -27 97 -29 70 -3 75 -2 101 26 23 25 45
33 127 50 150 32 286 48 453 56 120 5 153 10 158 22 3 8 -26 114 -64 236 -38
121 -77 246 -85 277 -9 31 -27 66 -41 79 -13 12 -27 35 -30 50 -9 43 -33 57
-118 71 -89 15 -212 2 -299 -31 l-49 -18 -10 25 c-5 13 -7 28 -4 32 2 4 5 57
6 117 1 59 4 114 6 121 8 21 29 15 41 -12 12 -25 15 -26 75 -20 94 10 107 19
107 77 0 26 2 48 4 48 2 0 11 3 20 6 10 4 20 -5 31 -26 18 -35 112 -87 139
-77 26 10 30 36 12 73 -18 39 -22 149 -5 159 6 4 38 -23 72 -59 64 -68 85 -78
108 -50 10 12 10 24 1 59 -17 62 -8 78 38 72 41 -5 70 7 70 29 0 9 -18 33 -40
54 -42 41 -48 63 -25 94 11 14 26 19 54 18 61 -3 67 28 11 60 -46 26 -35 58
20 58 9 0 24 7 31 16 12 14 10 19 -14 38 -15 12 -27 26 -27 31 0 6 16 26 35
45 19 19 35 39 35 45 0 20 -24 35 -57 35 -34 0 -83 38 -83 64 0 7 18 29 40 50
22 21 40 44 40 52 0 7 -20 28 -45 46 -60 44 -58 68 9 83 92 19 57 61 -42 51
-39 -5 -65 -2 -82 7 -25 13 -26 17 -13 79 8 43 -21 47 -61 9 -39 -38 -60 -41
-54 -7 9 46 -7 54 -57 27 -42 -22 -47 -23 -62 -8 -14 14 -15 22 -5 55 16 52
15 77 -3 92 -23 20 -48 3 -83 -55 -36 -60 -69 -95 -88 -95 -26 0 -43 29 -37
65 8 47 -9 65 -62 65 -58 0 -78 23 -64 73 5 21 7 42 4 47 -7 12 -45 14 -45 3z
m-395 -444 c11 -1 39 2 61 6 111 19 161 -99 97 -225 -39 -75 -62 -89 -151 -91
-67 -2 -76 1 -110 28 -74 60 -102 159 -64 233 22 45 56 62 107 55 22 -3 49 -6
60 -6z m640 0 c11 0 37 3 58 7 76 13 127 -33 127 -117 0 -65 -21 -120 -62
-161 -37 -37 -38 -37 -117 -37 -75 0 -81 2 -114 32 -73 65 -96 156 -58 227 24
46 56 62 106 55 22 -3 49 -6 60 -6z m-666 -484 c12 -4 43 -1 67 5 81 23 144
-25 144 -109 0 -70 -18 -120 -60 -164 -37 -41 -38 -41 -115 -42 -76 -2 -80 -1
-116 32 -89 81 -104 201 -33 264 30 27 56 30 113 14z m643 0 c15 -4 43 -2 62
5 45 15 97 -1 126 -37 40 -52 21 -167 -40 -236 l-37 -41 -78 -1 c-79 -2 -79
-2 -121 37 -55 50 -79 111 -70 175 9 69 62 118 116 107 8 -2 27 -6 42 -9z
m-587 -864 c39 -10 87 -26 109 -35 l38 -16 -3 -95 -4 -95 50 -38 50 -38 3
-102 c1 -56 1 -102 -2 -102 -2 0 -37 18 -78 39 -124 67 -259 101 -460 117 -94
7 -97 9 -77 61 6 15 28 86 50 157 21 72 43 134 48 139 30 30 178 34 276 8z
m812 1 c15 -8 29 -38 48 -99 14 -49 37 -123 51 -165 13 -42 24 -81 24 -86 0
-5 -55 -14 -122 -20 -193 -18 -344 -60 -449 -124 -25 -15 -49 -28 -53 -28 -3
0 -6 43 -6 95 0 89 1 95 27 119 14 14 41 33 59 42 19 10 36 24 39 32 2 7 0 46
-6 87 -6 41 -9 81 -5 90 7 18 38 32 131 56 77 21 224 21 262 1z m-1020 -433
c175 -23 323 -76 428 -153 27 -20 54 -36 58 -36 5 0 27 15 50 34 120 97 393
173 587 164 l65 -3 0 -50 0 -50 -110 -6 c-217 -13 -433 -55 -543 -104 -53 -24
-54 -25 -90 -6 -96 49 -330 96 -542 108 l-125 8 -3 39 c-5 62 -1 66 77 66 38
0 105 -5 148 -11z"/>
<path d="M5261 9202 c-13 -9 -49 -31 -79 -47 -31 -17 -57 -35 -59 -42 -2 -6 9
-18 24 -26 15 -8 57 -31 93 -52 36 -20 81 -46 100 -57 19 -11 118 -69 220
-128 167 -97 471 -273 750 -433 58 -33 121 -69 140 -80 19 -11 47 -27 63 -34
31 -16 36 -40 10 -50 -10 -4 -38 -19 -64 -33 -25 -15 -67 -40 -95 -55 -74 -41
-484 -278 -607 -351 -60 -35 -112 -64 -117 -64 -5 0 -13 -8 -19 -17 -11 -22
-13 -201 -1 -208 4 -3 72 33 151 78 79 46 279 162 444 256 341 197 421 243
485 281 25 15 84 49 132 76 49 27 88 54 88 61 0 6 -12 18 -27 26 -16 8 -57 31
-93 52 -36 21 -85 49 -110 63 -25 14 -124 71 -220 127 -96 56 -195 113 -220
127 -74 42 -150 86 -465 267 -165 96 -342 198 -393 227 -51 30 -96 54 -100 53
-4 0 -18 -8 -31 -17z"/>
<path d="M5069 9028 c0 -2 -1 -423 -1 -936 -1 -883 0 -933 17 -952 10 -11 22
-20 26 -20 5 0 33 -16 63 -35 30 -19 61 -35 68 -35 11 0 13 156 15 822 2 451
5 823 7 826 3 2 94 -47 203 -111 109 -63 306 -177 438 -252 132 -76 251 -145
265 -153 24 -14 31 -12 115 34 49 27 89 53 88 59 0 10 -37 33 -173 110 -41 23
-102 58 -135 77 -121 70 -397 229 -665 383 -151 87 -282 164 -291 171 -13 12
-38 19 -40 12z"/>
<path d="M5340 7805 c0 -737 0 -755 19 -755 11 0 21 4 23 8 2 4 23 19 48 33
96 54 519 298 593 343 43 25 81 46 83 46 2 0 23 12 45 26 23 14 60 36 82 49
23 13 125 71 227 130 102 59 253 146 335 192 83 47 158 92 168 101 14 12 17
32 17 112 0 53 -3 100 -7 103 -3 4 -17 0 -29 -8 -13 -8 -67 -40 -121 -72 -183
-105 -358 -206 -393 -226 -19 -10 -136 -78 -260 -149 -124 -72 -269 -156 -323
-187 -53 -31 -145 -84 -203 -118 -67 -39 -107 -57 -110 -50 -2 7 -5 250 -7
542 l-2 529 -85 53 c-47 29 -88 53 -92 53 -5 0 -8 -340 -8 -755z"/>
<path d="M7818 9142 c-54 -19 -98 -38 -98 -42 0 -8 174 -70 198 -70 13 0 18
136 5 142 -5 2 -52 -11 -105 -30z"/>
<path d="M1130 9200 c0 -23 5 -50 10 -61 16 -30 68 -52 105 -45 47 9 69 38 69
94 l1 47 -92 3 -93 3 0 -41z"/>
<path d="M1045 8423 c-84 -20 -121 -70 -113 -152 9 -92 70 -131 204 -131 124
1 184 47 184 143 0 91 -74 147 -195 145 -33 0 -69 -2 -80 -5z"/>
<path d="M2260 6008 c-35 -119 -34 -118 -145 -118 -52 0 -95 -4 -95 -9 0 -5
17 -21 38 -36 20 -16 56 -43 78 -61 l41 -33 -32 -96 c-19 -57 -27 -95 -20 -95
6 0 46 25 89 56 l77 56 70 -48 c38 -27 76 -53 84 -59 26 -17 25 1 -5 90 -17
49 -30 92 -30 96 0 4 29 28 64 53 115 82 116 80 -5 86 l-104 5 -30 92 c-16 51
-35 93 -42 93 -6 0 -21 -33 -33 -72z"/>
<path d="M3211 5874 c-28 -23 -36 -25 -56 -16 -21 10 -28 8 -47 -13 -21 -22
-196 -92 -287 -115 -42 -11 -60 -28 -67 -64 -3 -16 -6 -33 -7 -39 -1 -5 18
-15 43 -21 51 -13 55 -27 11 -40 -36 -10 -38 -17 -11 -41 21 -19 37 -18 112
11 47 18 47 18 71 -4 15 -15 36 -22 61 -22 53 0 43 -18 -30 -55 -34 -17 -82
-54 -114 -88 -30 -32 -83 -88 -117 -123 l-63 -66 -27 32 c-42 49 -73 102 -73
126 0 26 -30 54 -56 54 -11 0 -49 -28 -85 -62 -36 -35 -84 -79 -107 -99 -37
-31 -42 -41 -42 -76 0 -24 -11 -62 -25 -91 -41 -82 -30 -109 41 -96 46 8 69
37 67 84 -2 31 3 44 23 59 25 20 31 45 14 56 -22 14 -7 42 38 73 27 17 52 32
56 32 13 0 55 -104 59 -148 4 -45 26 -76 69 -98 16 -8 28 -18 28 -23 0 -23
-34 -16 -94 20 -36 21 -72 39 -80 39 -30 0 -39 -43 -42 -185 l-3 -140 33 -35
c19 -19 41 -55 50 -80 10 -25 24 -54 31 -64 19 -25 38 -9 61 50 20 52 8 94
-33 113 -22 10 -24 15 -18 50 6 36 5 38 -27 47 -32 10 -33 11 -30 60 2 27 7
53 12 57 12 13 44 -8 119 -76 38 -34 82 -70 99 -80 30 -17 32 -17 50 1 11 11
22 26 24 33 7 19 16 9 22 -24 10 -55 18 -68 81 -121 71 -60 159 -116 223 -141
31 -13 42 -23 42 -39 0 -39 29 -135 53 -173 28 -45 47 -125 47 -195 0 -66 -47
-150 -137 -243 -64 -67 -102 -133 -88 -155 9 -14 75 -12 104 3 13 6 31 31 40
53 21 53 36 71 67 78 23 6 25 10 20 41 -9 44 9 73 87 146 l60 55 -13 38 c-14
42 -7 56 18 38 9 -7 40 -23 67 -37 28 -13 68 -42 90 -64 l39 -41 -18 -57 c-20
-67 -94 -185 -130 -209 -14 -8 -28 -25 -32 -37 -4 -12 -13 -28 -21 -36 -25
-24 11 -44 67 -36 88 12 90 14 90 54 0 47 21 77 65 91 39 13 43 25 19 51 -26
29 -13 75 54 192 29 50 28 67 -10 110 -18 20 -48 55 -67 78 l-35 42 25 19 c71
57 120 113 130 152 6 22 13 47 15 54 5 19 50 14 96 -12 68 -38 93 -96 93 -217
l0 -96 22 14 c36 24 38 -4 8 -104 -7 -23 8 -33 20 -13 3 6 12 10 20 10 10 0
12 -10 8 -40 -4 -27 -2 -40 6 -40 14 0 50 76 51 106 0 23 23 48 33 37 10 -10
8 12 -4 43 -7 21 -7 34 2 51 11 20 9 33 -13 86 -27 64 -22 83 13 51 29 -26 33
-12 14 52 -31 106 -68 165 -137 217 -54 41 -93 43 -163 8 -33 -17 -69 -31 -81
-31 -12 0 -48 30 -95 79 -56 59 -93 88 -147 115 -103 52 -205 119 -224 147 -9
13 -27 38 -42 54 -14 17 -26 37 -26 46 0 20 31 49 52 49 23 0 30 28 10 39 -9
5 -14 13 -10 17 4 4 13 2 20 -4 19 -15 88 -26 88 -14 0 5 -17 20 -37 32 -46
28 -31 36 38 21 29 -6 54 -9 57 -6 10 9 -21 35 -52 43 -38 10 -46 37 -14 46
22 6 22 7 4 21 -17 13 -13 14 35 10 30 -2 64 -6 75 -10 12 -4 25 -2 28 3 8 14
-32 42 -60 42 -12 0 -32 9 -45 21 l-24 20 83 -4 c71 -3 82 -2 80 12 -2 10 -22
20 -53 27 -71 17 -85 24 -85 45 0 20 52 38 104 35 16 0 31 4 33 9 4 13 -53 35
-89 35 -15 0 -33 3 -42 6 -20 8 -21 34 -1 34 29 0 15 28 -17 35 -29 6 -31 8
-13 15 11 5 41 9 68 9 69 1 62 14 -26 50 -15 6 -41 11 -57 11 -36 0 -61 10
-54 21 3 5 14 9 25 9 12 0 19 7 19 19 0 14 -10 21 -37 26 -21 4 -43 15 -50 25
-7 10 -27 21 -44 25 -23 5 -29 11 -24 23 18 46 -1 52 -44 16z"/>
<path d="M5534 6051 c-17 -4 -46 -16 -65 -26 -154 -83 -159 -85 -259 -85 -93
0 -193 19 -213 39 -15 15 -37 14 -37 -2 0 -21 88 -65 166 -83 47 -11 96 -15
155 -11 73 4 99 10 180 46 128 58 150 57 288 -9 108 -51 114 -52 185 -48 61 3
86 10 157 45 97 48 152 65 188 57 14 -4 67 -25 116 -47 86 -40 94 -42 190 -42
109 1 189 23 243 70 41 35 21 40 -52 11 -50 -20 -82 -26 -144 -26 -85 0 -128
13 -197 59 -66 45 -104 56 -190 55 -86 -2 -126 -14 -208 -66 -64 -41 -151 -45
-212 -10 -125 71 -214 93 -291 73z"/>
<path d="M5505 5777 c-22 -8 -64 -28 -93 -46 -95 -60 -181 -73 -308 -50 -32 6
-77 19 -98 30 -48 23 -46 23 -46 4 0 -16 72 -61 122 -76 18 -5 65 -14 104 -19
95 -12 178 2 278 47 124 56 145 55 276 -7 165 -78 216 -78 374 4 102 53 161
56 256 10 123 -59 196 -71 299 -50 78 16 181 69 181 92 0 18 -3 18 -48 -5 -54
-27 -142 -44 -203 -39 -58 5 -114 28 -194 80 -48 32 -53 33 -155 33 -98 0
-109 -2 -155 -29 -156 -90 -193 -90 -349 -1 -40 23 -64 29 -125 32 -45 2 -92
-3 -116 -10z"/>
<path d="M7526 4692 c-5 -9 144 -140 165 -145 12 -2 61 112 55 128 -2 7 -41
12 -92 13 -49 2 -96 5 -106 8 -9 3 -19 1 -22 -4z"/>
<path d="M7153 4057 c-24 -14 -63 -60 -63 -75 0 -13 119 -105 138 -106 8 -1
26 19 40 44 23 42 24 48 11 75 -14 29 -72 75 -93 75 -6 -1 -21 -6 -33 -13z"/>
<path d="M5324 2806 c-64 -20 -63 -19 -37 -103 13 -43 28 -94 33 -113 22 -82
44 -146 52 -157 11 -14 73 6 121 39 59 42 73 124 37 221 -23 62 -62 103 -111
117 -41 12 -43 12 -95 -4z"/>
<path d="M3881 2594 c-28 -54 -48 -101 -44 -105 5 -4 39 -10 77 -14 l69 -8 -6
24 c-4 13 -12 60 -18 104 -7 44 -15 84 -19 88 -4 5 -31 -35 -59 -89z"/>
<path d="M50 3496 c0 -73 33 -254 61 -340 49 -148 132 -247 256 -307 59 -28
73 -43 120 -127 7 -13 33 -50 58 -83 43 -57 54 -79 38 -79 -5 0 -42 7 -83 16
-86 18 -242 14 -325 -10 -71 -20 -164 -56 -170 -66 -9 -15 135 -114 230 -158
62 -29 227 -72 277 -72 50 0 163 27 212 51 22 10 44 19 49 19 5 0 52 -43 105
-96 54 -53 127 -121 165 -151 37 -31 67 -59 67 -64 0 -5 -35 -9 -77 -9 -73 0
-170 -17 -238 -41 -50 -18 -189 -89 -214 -110 -30 -25 -23 -33 70 -82 121 -63
295 -107 427 -107 91 0 224 48 316 113 25 18 31 18 50 7 152 -98 491 -280 522
-280 26 0 15 -29 -13 -35 -156 -33 -285 -103 -400 -216 -66 -65 -74 -82 -45
-94 130 -50 386 -45 541 9 57 21 163 97 203 146 17 22 36 40 42 40 28 1 506
-185 506 -196 0 -7 -25 -20 -55 -30 -68 -21 -195 -98 -263 -159 -64 -57 -155
-171 -148 -184 11 -18 149 -33 250 -28 117 6 243 36 336 80 48 22 86 52 146
113 l80 82 115 -49 c139 -60 127 -55 273 -123 65 -31 122 -56 126 -56 4 0 13
-7 20 -15 13 -16 7 -19 -75 -45 -124 -39 -227 -102 -340 -211 -86 -83 -99
-104 -67 -112 96 -27 142 -32 282 -31 138 1 165 4 245 28 107 32 162 63 231
128 28 26 56 48 63 48 19 0 341 -221 341 -234 0 -2 -26 -25 -57 -51 -148 -122
-243 -225 -243 -264 1 -40 22 -61 63 -61 19 0 37 3 39 8 2 4 27 23 57 42 30
19 104 74 164 122 61 49 113 88 117 88 4 0 49 -34 101 -76 52 -41 126 -96 164
-122 39 -26 72 -50 73 -54 2 -5 18 -8 36 -8 38 0 66 26 66 59 0 44 -35 84
-201 230 -46 41 -88 77 -92 81 -13 12 305 240 334 240 6 0 37 -24 69 -53 66
-62 133 -97 245 -129 67 -18 105 -22 230 -23 134 0 183 5 278 32 31 8 18 30
-71 115 -121 115 -225 175 -386 224 -16 5 -30 13 -30 18 -1 12 7 16 149 82 66
30 129 59 140 64 79 37 233 100 245 100 9 0 39 -26 67 -58 95 -108 208 -166
388 -198 126 -22 328 -13 359 16 17 16 -102 154 -194 225 -63 48 -153 98 -223
123 -49 17 -60 31 -35 44 27 13 477 178 487 178 6 0 41 -30 79 -67 116 -113
217 -152 420 -160 151 -7 312 20 312 51 0 16 -125 137 -184 176 -55 37 -183
94 -236 104 -60 13 -70 17 -70 32 0 8 5 14 12 14 31 0 391 190 497 263 43 29
45 29 70 13 48 -31 185 -93 233 -105 80 -19 207 -9 355 28 81 21 253 109 253
130 0 14 -109 78 -190 111 -91 37 -200 60 -290 60 -38 0 -70 4 -70 9 0 4 33
35 73 69 39 33 113 101 164 151 50 50 96 91 101 91 5 0 34 -11 63 -24 30 -13
84 -29 122 -36 59 -12 78 -12 160 4 144 27 283 93 402 190 l30 24 -59 26
c-156 69 -300 81 -503 40 -26 -5 -33 -3 -33 9 0 8 4 17 8 19 11 4 91 120 125
180 22 39 39 53 90 77 179 85 266 239 308 541 6 47 10 98 8 114 l-4 29 -122
-82 c-247 -166 -345 -326 -326 -528 5 -50 4 -53 -53 -125 -127 -159 -134 -166
-146 -144 -5 9 -7 20 -4 24 4 8 -24 145 -39 187 -38 107 -144 285 -169 285
-18 0 -87 -186 -110 -300 -34 -164 -3 -293 93 -384 17 -17 31 -35 31 -40 0
-19 -358 -335 -380 -336 -3 0 -6 62 -6 138 -1 143 -14 221 -56 332 -29 74 -78
170 -88 170 -21 0 -135 -213 -172 -321 -67 -193 -60 -287 30 -427 9 -15 22
-33 29 -40 7 -7 13 -17 13 -22 0 -8 -91 -65 -205 -131 -77 -44 -340 -179 -349
-179 -10 0 -6 18 25 115 19 60 22 92 22 230 0 161 -13 243 -40 252 -20 7 -190
-172 -249 -262 -30 -46 -54 -90 -54 -98 0 -9 -4 -18 -9 -21 -5 -3 -14 -35 -21
-71 -13 -70 -5 -128 31 -212 10 -23 14 -45 9 -48 -12 -8 -476 -172 -542 -192
-22 -7 -25 23 -5 46 18 21 44 88 70 181 18 62 21 103 22 237 0 101 -4 166 -11
173 -21 21 -230 -157 -313 -265 -105 -137 -131 -241 -95 -380 9 -33 18 -69 21
-80 4 -18 -7 -25 -84 -54 -112 -43 -140 -55 -352 -158 -95 -46 -176 -82 -178
-79 -3 2 6 33 20 68 44 110 60 217 55 363 -5 133 -23 225 -44 225 -17 0 -199
-174 -248 -239 -55 -71 -110 -180 -126 -250 -19 -81 -3 -167 52 -290 11 -24
16 -47 11 -50 -4 -3 -53 -36 -108 -73 -55 -37 -122 -84 -150 -103 -27 -20 -67
-48 -88 -62 l-38 -26 -57 41 c-31 23 -115 81 -187 128 -71 48 -134 91 -138 95
-5 3 -1 21 8 39 24 47 55 148 62 201 11 91 -43 233 -132 350 -59 76 -246 252
-257 241 -18 -18 -38 -152 -38 -260 0 -120 17 -222 51 -312 29 -77 32 -90 23
-90 -4 0 -69 31 -143 68 -140 70 -379 176 -425 188 -33 8 -50 29 -41 51 33 81
43 198 23 267 -37 128 -179 297 -349 416 -53 37 -60 40 -67 23 -4 -10 -7 -88
-7 -173 1 -173 18 -260 75 -376 32 -66 37 -89 18 -81 -7 2 -62 21 -123 42
-225 76 -371 127 -402 140 l-33 14 19 43 c37 87 46 142 32 205 -18 87 -39 133
-101 223 -52 77 -216 243 -233 237 -27 -9 -40 -91 -40 -257 0 -153 2 -171 26
-243 29 -82 32 -97 19 -97 -14 0 -331 168 -440 234 -87 53 -110 71 -105 84 4
9 9 19 13 22 3 3 13 17 23 32 68 108 86 180 68 285 -15 90 -40 163 -88 263
-43 88 -111 200 -123 200 -10 0 -53 -81 -81 -153 -49 -123 -62 -196 -63 -344
0 -79 -2 -143 -4 -143 -19 0 -382 318 -382 335 0 6 12 22 26 36 43 39 90 120
104 178 24 100 -4 262 -72 426 -18 43 -38 80 -44 82 -22 7 -127 -164 -163
-266 -25 -69 -51 -198 -44 -216 9 -26 -20 -28 -39 -4 -11 13 -27 33 -36 44 -9
11 -35 42 -57 70 -22 27 -48 59 -58 70 -15 16 -18 31 -14 80 16 215 -86 372
-354 546 -100 65 -99 65 -99 25z"/>
</g>
</svg>
